<?xml version="1.0" encoding="utf-8"?>
<!-- Generator: Adobe Illustrator 16.0.0, SVG Export Plug-In . SVG Version: 6.00 Build 0)  -->
<!DOCTYPE svg PUBLIC "-//W3C//DTD SVG 1.1//EN" "http://www.w3.org/Graphics/SVG/1.1/DTD/svg11.dtd">
<svg version="1.1" id="Layer_1" xmlns="http://www.w3.org/2000/svg" xmlns:xlink="http://www.w3.org/1999/xlink" x="0px" y="0px"
	 width="612px" height="792px" viewBox="0 0 612 792" enable-background="new 0 0 612 792" xml:space="preserve">
<g id="XMLID_3_">
	<g>
		<path fill="#FFFFFF" d="M273.27,307.95c-0.52,0.19-1.11,0.3-1.77,0.3c-5.88,0-6.39-8.29-1.56-9.77c0.78-1.26,2.13-2.15,4.06-2.15
			c1.51,0,2.67,0.55,3.48,1.4c5.63,0.8,5.36,9.94-0.81,9.94c-0.24,0-0.47-0.02-0.69-0.05c-0.57,0.24-1.23,0.38-1.98,0.38
			C273.75,308,273.5,307.98,273.27,307.95z"/>
		<path d="M187.02,293.36c1.02,4.93,3.71,8.66,7.86,11.41c2.83,1.88,4.23,4.46,4.02,7.9c-0.11,1.71-0.1,3.44-0.1,5.16
			c-0.01,7.08-0.01,14.15-0.01,21.23c0.04,0,0.09,0,0.13,0c0,8.76-0.01,17.52,0,26.27c0.01,11.13,7.84,20.83,18.79,22.88
			c3.46,0.65,7.07,0.74,10.61,0.73c9.63-0.04,19.26-0.18,28.88-0.47c4.23-0.12,8.31-1.25,11.87-3.66c6.99-4.74,10-11.71,10.19-19.85
			c0.28-12.11,0.21-24.23,0.25-36.34c0.02-5.55-0.03-11.11-0.08-16.67c-0.03-3.6,1.03-6.62,3.75-9.2c3.88-3.71,6.29-8.3,6.31-13.79
			c0.02-7.98-3.74-13.86-10.57-17.81c-2.19-1.27-3.81-2.94-4.94-5.21c-0.91-1.85-1.94-3.67-3.11-5.38
			c-3.1-4.51-7.99-6.02-13.05-3.91c-2.07,0.87-4.01,2.12-5.92,3.33c-1.22,0.77-2.27,0.89-3.56,0.18c-1.6-0.88-3.27-1.66-4.96-2.35
			c-9.15-3.72-17.44-2.45-24.67,4.42c-1.74,1.65-3.28,3.5-4.88,5.28c-1.18,1.32-2.55,2.3-4.37,2.44c-1.48,0.1-2.96,0.16-4.43,0.22
			C193.09,270.7,184.59,281.67,187.02,293.36z M192.27,310.56c0.02-3.23-1.22-5.55-3.79-7.4c-14.26-10.28-8.97-29.05-0.39-35.55
			c3.29-2.5,7.14-3.45,11.1-4.14c3.61-0.63,6.47-2.39,8.41-5.56c8.51-13.9,26.72-16.75,39.54-7.99c1.09,0.75,2.18,1.51,3.19,2.35
			c0.7,0.59,1.27,0.57,2.03,0.1c1.87-1.13,3.71-2.39,5.71-3.24c8.29-3.56,17.28-0.17,21.26,7.95c1.51,3.09,3.69,5.44,6.69,7.12
			c12.54,7.02,14.29,21.45,9.92,30.29c-2.01,4.07-5.11,7.21-8.39,10.21c-0.79,0.72-1.59,1.43-2.58,2.31
			c2.48,0.47,4.78,0.9,7.08,1.35c6.34,1.25,11.47,4.28,14.67,10.1c1.63,2.96,2.391,6.16,2.391,9.53c0.01,7.56,0,15.12-0.04,22.68
			c-0.04,8.85-7.28,17.13-16.05,18.41c-0.6,0.08-1.19,0.17-1.79,0.21c-3.56,0.25-5.96,2.01-7.12,5.42
			c-1.25,3.65-2.99,7.04-5.45,10.04c-4.88,5.94-11.26,9.19-18.78,10.21c-2.8,0.37-5.65,0.51-8.48,0.53
			c-9.56,0.05-19.12,0-28.68-0.02c-13.79-0.01-26.12-9.61-29.27-23c-0.73-3.08-0.98-6.31-1.09-9.49
			c-0.19-5.35-0.11-10.71-0.12-16.07C192.23,334.8,192.18,322.68,192.27,310.56z M302.12,352.77c0.79-8.56,1-17.12,0.21-25.7
			c-0.22-2.47-0.5-4.92-2.08-7c-3.28-4.33-7.73-5.63-12.92-5.13c-1.13,0.11-1.31,0.76-1.31,1.73c0.03,7.35,0.02,14.7,0.02,22.05
			c0,2.28,0,4.56,0,6.84c-0.02,5.15-0.04,10.31-0.04,15.46c0,1.39,0.29,1.65,1.62,1.6c1.59-0.07,3.19-0.12,4.78-0.27
			C297.35,361.88,301.68,357.59,302.12,352.77z"/>
		<path fill="#FFFFFF" d="M302.33,327.07c0.79,8.58,0.58,17.14-0.21,25.7c-0.44,4.82-4.77,9.11-9.72,9.58
			c-1.59,0.15-3.19,0.2-4.78,0.27c-1.33,0.05-1.62-0.21-1.62-1.6c0-5.15,0.02-10.31,0.04-15.46c0-2.28,0-4.56,0-6.84
			c0-7.35,0.01-14.7-0.02-22.05c0-0.97,0.18-1.62,1.31-1.73c5.19-0.5,9.64,0.8,12.92,5.13C301.83,322.15,302.11,324.6,302.33,327.07
			z"/>
		<path fill="#FFFFFF" d="M269.94,298.48c-4.83,1.48-4.32,9.77,1.56,9.77c0.66,0,1.25-0.11,1.77-0.3c0.23,0.03,0.48,0.05,0.73,0.05
			c0.75,0,1.41-0.14,1.98-0.38c0.22,0.03,0.45,0.05,0.69,0.05c6.17,0,6.44-9.14,0.81-9.94c-0.81-0.85-1.97-1.4-3.48-1.4
			C272.07,296.33,270.72,297.22,269.94,298.48z M289.49,288.96c-0.02,5.49-2.43,10.08-6.31,13.79c-2.72,2.58-3.78,5.6-3.75,9.2
			c0.05,5.56,0.1,11.12,0.08,16.67c-0.04,12.11,0.03,24.23-0.25,36.34c-0.19,8.14-3.2,15.11-10.19,19.85
			c-3.56,2.41-7.64,3.54-11.87,3.66c-9.62,0.29-19.25,0.43-28.88,0.47c-3.54,0.01-7.15-0.08-10.61-0.73
			c-10.95-2.05-18.78-11.75-18.79-22.88c-0.01-8.75,0-17.51,0-26.27c-0.04,0-0.09,0-0.13,0c0-7.08,0-14.15,0.01-21.23
			c0-1.72-0.01-3.45,0.1-5.16c0.21-3.44-1.19-6.02-4.02-7.9c-4.15-2.75-6.84-6.48-7.86-11.41c-2.43-11.69,6.07-22.66,18.01-23.19
			c1.47-0.06,2.95-0.12,4.43-0.22c1.82-0.14,3.19-1.12,4.37-2.44c1.6-1.78,3.14-3.63,4.88-5.28c7.23-6.87,15.52-8.14,24.67-4.42
			c1.69,0.69,3.36,1.47,4.96,2.35c1.29,0.71,2.34,0.59,3.56-0.18c1.91-1.21,3.85-2.46,5.92-3.33c5.06-2.11,9.95-0.6,13.05,3.91
			c1.17,1.71,2.2,3.53,3.11,5.38c1.13,2.27,2.75,3.94,4.94,5.21C285.75,275.1,289.51,280.98,289.49,288.96z"/>
	</g>
	<g>
	</g>
</g>
<g>
	<g id="XMLID_1_">
		<g>
			<path fill="#D47F00" d="M271.503,308.251c0.67,0,1.267-0.11,1.798-0.298c0.224,0.033,0.458,0.044,0.703,0.044
				c0.745,0,1.405-0.132,1.979-0.375c0.212,0.033,0.447,0.044,0.681,0.044c0.17,0,0.33-0.022,0.49-0.033
				c0,11.987,0.032,23.963-0.011,35.95c-0.032,6.374-0.042,12.748-0.34,19.111c-0.66,14.248-10.365,23.367-20.645,23.444
				c-10.291,0.078-20.57,0.386-30.86,0.43c-6.172,0.022-11.908-1.698-16.59-6.727c-4.64-4.962-7.002-11.138-7.204-18.427
				c-0.011-0.474,0-0.948,0-1.423c-0.032-17.435-0.074-34.858-0.106-52.282c0-0.044,0-0.077,0-0.121
				c0.437,0.287,0.915,0.54,1.447,0.695c0.926,0.265,1.894,0.275,2.81,0.044c0.33,0.231,0.691,0.441,1.064,0.584
				c2.948,2.867,6.012,5.514,10.312,5.778c3.512,0.209,6.406-0.672,9.333-2.69c1.032-0.695,2-1.753,3.15-2.239
				c0.809-0.331,3.693,1.864,4.523,2.239c5.544,2.503,13.685,3.859,19.708,3.198c6.087-0.662,11.737-3.815,17.069-6.991
				C271.035,308.24,271.258,308.251,271.503,308.251z"/>
		</g>
		<g>
		</g>
	</g>
</g>
<path fill-rule="evenodd" clip-rule="evenodd" fill="#040404" d="M217.932,277.001c0.203,2.254,0.183,4.514,0.65,6.668
	c0.826,3.817,3.279,5.728,7.203,5.906c1.977,0.09,3.961,0.016,5.971,0.016c-0.67,3.269-4.354,5.7-8.537,5.762
	c-4.855,0.072-8.893-3.098-9.874-7.754C212.379,283.016,214.315,278.565,217.932,277.001z"/>
<path fill-rule="evenodd" clip-rule="evenodd" fill="#040404" d="M243.992,274.212c-1.207-1.122-2.338-2.173-3.541-3.29
	c1.026-1.218,2.014-2.39,3.07-3.645c1.179,1.052,2.297,2.05,3.481,3.107C245.985,271.679,245.011,272.916,243.992,274.212z"/>
<g id="XMLID_2_">
	<g>
		<path fill="#FFFFFF" d="M263.78,320.151c0.244,0.597,0.334,1.221,0.334,1.9c0,0.643-0.099,1.304-0.379,1.928
			c-0.217,0.478-0.533,0.891-1.066,1.065c-0.687,0.239-1.373,0.22-1.996-0.174c-0.379-0.229-0.596-0.597-0.75-0.992
			c-0.28-0.688-0.389-1.405-0.353-2.139c0.036-0.625,0.163-1.212,0.434-1.781c0.416-0.891,1.174-1.166,2.05-1.12
			C262.949,318.884,263.473,319.398,263.78,320.151z M263.102,321.868c-0.018-0.156-0.036-0.441-0.081-0.716
			c-0.063-0.358-0.181-0.688-0.397-0.982c-0.298-0.413-1.237-0.551-1.599,0.074c-0.118,0.211-0.217,0.44-0.28,0.67
			c-0.171,0.606-0.181,1.221-0.09,1.836c0.054,0.349,0.145,0.698,0.343,1.001c0.271,0.395,0.714,0.542,1.183,0.404
			c0.307-0.092,0.479-0.312,0.596-0.569C263.012,323.08,263.093,322.538,263.102,321.868z"/>
		<path fill="#FFFFFF" d="M263.78,335.392c0.244,0.606,0.334,1.23,0.334,1.91c0,0.643-0.099,1.304-0.379,1.928
			c-0.217,0.478-0.533,0.891-1.066,1.065c-0.687,0.238-1.373,0.22-1.996-0.175c-0.379-0.239-0.596-0.597-0.75-0.992
			c-0.28-0.688-0.389-1.405-0.353-2.139c0.036-0.625,0.163-1.221,0.434-1.791c0.416-0.881,1.174-1.157,2.05-1.111
			C262.949,334.134,263.473,334.648,263.78,335.392z M263.102,337.118c-0.018-0.165-0.036-0.44-0.081-0.725
			c-0.063-0.349-0.181-0.68-0.397-0.973c-0.298-0.414-1.237-0.551-1.599,0.073c-0.118,0.211-0.217,0.441-0.28,0.661
			c-0.171,0.606-0.181,1.23-0.09,1.846c0.054,0.349,0.145,0.698,0.343,1c0.271,0.386,0.714,0.542,1.183,0.404
			c0.307-0.092,0.479-0.313,0.596-0.569C263.012,338.321,263.093,337.789,263.102,337.118z"/>
		<path fill="#FFFFFF" d="M263.78,342.875c0.244,0.606,0.334,1.23,0.334,1.91c0,0.643-0.099,1.304-0.379,1.928
			c-0.217,0.477-0.533,0.891-1.066,1.065c-0.687,0.239-1.373,0.211-1.996-0.174c-0.379-0.239-0.596-0.597-0.75-0.992
			c-0.28-0.689-0.389-1.405-0.353-2.14c0.036-0.624,0.163-1.221,0.434-1.79c0.416-0.891,1.174-1.157,2.05-1.111
			C262.949,341.617,263.473,342.131,263.78,342.875z M263.102,344.602c-0.018-0.166-0.036-0.441-0.081-0.726
			c-0.063-0.349-0.181-0.679-0.397-0.973c-0.298-0.413-1.237-0.551-1.599,0.073c-0.118,0.211-0.217,0.432-0.28,0.661
			c-0.171,0.606-0.181,1.23-0.09,1.846c0.054,0.349,0.145,0.688,0.343,0.992c0.271,0.395,0.714,0.551,1.183,0.413
			c0.307-0.092,0.479-0.313,0.596-0.579C263.012,345.804,263.093,345.271,263.102,344.602z"/>
		<path fill="#FFFFFF" d="M263.78,350.478c0.244,0.597,0.334,1.23,0.334,1.901c0,0.643-0.099,1.304-0.379,1.937
			c-0.217,0.478-0.533,0.881-1.066,1.065c-0.687,0.23-1.373,0.211-1.996-0.184c-0.379-0.229-0.596-0.597-0.75-0.991
			c-0.28-0.689-0.389-1.405-0.353-2.14c0.036-0.615,0.163-1.212,0.434-1.781c0.416-0.891,1.174-1.166,2.05-1.12
			C262.949,349.22,263.473,349.725,263.78,350.478z M263.102,352.195c-0.018-0.156-0.036-0.441-0.081-0.716
			c-0.063-0.349-0.181-0.689-0.397-0.982c-0.298-0.413-1.237-0.542-1.599,0.083c-0.118,0.202-0.217,0.432-0.28,0.661
			c-0.171,0.606-0.181,1.221-0.09,1.836c0.054,0.358,0.145,0.698,0.343,1c0.271,0.395,0.714,0.542,1.183,0.404
			c0.307-0.092,0.479-0.313,0.596-0.569C263.012,353.407,263.093,352.865,263.102,352.195z"/>
		<path fill="#FFFFFF" d="M263.78,358.135c0.244,0.597,0.334,1.23,0.334,1.9c0,0.643-0.099,1.313-0.379,1.938
			c-0.217,0.478-0.533,0.881-1.066,1.065c-0.687,0.229-1.373,0.211-1.996-0.184c-0.379-0.229-0.596-0.597-0.75-0.982
			c-0.28-0.688-0.389-1.405-0.353-2.148c0.036-0.615,0.163-1.212,0.434-1.781c0.416-0.891,1.174-1.166,2.05-1.111
			C262.949,356.877,263.473,357.392,263.78,358.135z M263.102,359.861c-0.018-0.166-0.036-0.45-0.081-0.726
			c-0.063-0.349-0.181-0.679-0.397-0.982c-0.298-0.404-1.237-0.542-1.599,0.083c-0.118,0.211-0.217,0.431-0.28,0.661
			c-0.171,0.606-0.181,1.221-0.09,1.846c0.054,0.349,0.145,0.688,0.343,0.992c0.271,0.395,0.714,0.551,1.183,0.413
			c0.307-0.092,0.479-0.312,0.596-0.579C263.012,361.064,263.093,360.532,263.102,359.861z"/>
		<path fill="#FFFFFF" d="M262.696,372.247c0,2.13,0,4.242,0,6.363c-0.361,0-0.723,0-1.093,0c0-1.717,0-3.425,0-5.151
			c-0.217,0-0.416,0-0.614,0c0-0.276,0-0.533,0-0.799c0.072-0.009,0.163-0.019,0.235-0.028c0.226-0.055,0.406-0.156,0.56-0.321
			c0.036-0.037,0.099-0.055,0.144-0.064C262.181,372.247,262.434,372.247,262.696,372.247z"/>
		<path fill="#FFFFFF" d="M262.696,364.324c0,2.121,0,4.242,0,6.363c-0.361,0-0.723,0-1.093,0c0-1.717,0-3.434,0-5.151
			c-0.217,0-0.416,0-0.614,0c0-0.275,0-0.533,0-0.808c0.072-0.009,0.163-0.009,0.235-0.027c0.226-0.046,0.406-0.156,0.56-0.313
			c0.036-0.037,0.099-0.064,0.144-0.064C262.181,364.314,262.434,364.324,262.696,364.324z"/>
		<path fill="#FFFFFF" d="M262.325,326.431c0,2.13,0,4.242,0,6.363c-0.361,0-0.722,0-1.102,0c0-1.717,0-3.425,0-5.151
			c-0.217,0-0.407,0-0.614,0c0-0.276,0-0.533,0-0.799c0.081-0.009,0.163-0.019,0.244-0.028c0.217-0.055,0.407-0.156,0.56-0.321
			c0.027-0.037,0.09-0.064,0.145-0.064C261.811,326.431,262.063,326.431,262.325,326.431z"/>
		<path fill="#FFFFFF" d="M253.573,320.022c0.253,0.597,0.334,1.221,0.343,1.901c-0.009,0.643-0.1,1.304-0.388,1.928
			c-0.217,0.477-0.524,0.891-1.057,1.065c-0.695,0.239-1.373,0.22-2.005-0.174c-0.37-0.23-0.587-0.597-0.75-0.992
			c-0.271-0.689-0.379-1.405-0.343-2.14c0.027-0.624,0.163-1.212,0.424-1.781c0.425-0.891,1.174-1.166,2.06-1.12
			C252.751,318.755,253.266,319.269,253.573,320.022z M252.904,321.739c-0.018-0.156-0.036-0.441-0.09-0.716
			c-0.054-0.358-0.171-0.688-0.388-0.982c-0.307-0.413-1.238-0.551-1.599,0.073c-0.126,0.211-0.226,0.441-0.289,0.67
			c-0.171,0.606-0.171,1.221-0.081,1.836c0.054,0.349,0.135,0.698,0.343,1c0.262,0.395,0.713,0.542,1.174,0.404
			c0.307-0.092,0.479-0.313,0.605-0.569C252.814,322.951,252.886,322.409,252.904,321.739z"/>
		<path fill="#FFFFFF" d="M253.573,335.264c0.253,0.606,0.334,1.23,0.343,1.91c-0.009,0.643-0.1,1.304-0.388,1.928
			c-0.217,0.478-0.524,0.891-1.057,1.065c-0.695,0.239-1.373,0.221-2.005-0.174c-0.37-0.239-0.587-0.597-0.75-0.992
			c-0.271-0.688-0.379-1.405-0.343-2.139c0.027-0.625,0.163-1.221,0.424-1.791c0.425-0.881,1.174-1.157,2.06-1.111
			C252.751,334.006,253.266,334.52,253.573,335.264z M252.904,336.99c-0.018-0.165-0.036-0.441-0.09-0.725
			c-0.054-0.349-0.171-0.68-0.388-0.974c-0.307-0.413-1.238-0.551-1.599,0.074c-0.126,0.211-0.226,0.44-0.289,0.661
			c-0.171,0.606-0.171,1.23-0.081,1.845c0.054,0.349,0.135,0.698,0.343,1.001c0.262,0.386,0.713,0.542,1.174,0.404
			c0.307-0.092,0.479-0.312,0.605-0.569C252.814,338.192,252.886,337.66,252.904,336.99z"/>
		<path fill="#FFFFFF" d="M253.573,342.747c0.253,0.606,0.334,1.23,0.343,1.91c-0.009,0.643-0.1,1.304-0.388,1.928
			c-0.217,0.478-0.524,0.891-1.057,1.065c-0.695,0.238-1.373,0.211-2.005-0.175c-0.37-0.239-0.587-0.597-0.75-0.992
			c-0.271-0.688-0.379-1.405-0.343-2.139c0.027-0.625,0.163-1.221,0.424-1.791c0.425-0.891,1.174-1.157,2.06-1.111
			C252.751,341.489,253.266,342.003,253.573,342.747z M252.904,344.473c-0.018-0.165-0.036-0.44-0.09-0.725
			c-0.054-0.349-0.171-0.68-0.388-0.973c-0.307-0.414-1.238-0.551-1.599,0.073c-0.126,0.211-0.226,0.432-0.289,0.661
			c-0.171,0.606-0.171,1.23-0.081,1.846c0.054,0.349,0.135,0.688,0.343,0.991c0.262,0.395,0.713,0.551,1.174,0.414
			c0.307-0.092,0.479-0.313,0.605-0.579C252.814,345.676,252.886,345.143,252.904,344.473z"/>
		<path fill="#FFFFFF" d="M253.573,358.006c0.253,0.597,0.334,1.23,0.343,1.901c-0.009,0.643-0.1,1.313-0.388,1.938
			c-0.217,0.477-0.524,0.881-1.057,1.065c-0.695,0.229-1.373,0.211-2.005-0.184c-0.37-0.229-0.587-0.597-0.75-0.982
			c-0.271-0.689-0.379-1.405-0.343-2.148c0.027-0.615,0.163-1.212,0.424-1.781c0.425-0.891,1.174-1.167,2.06-1.111
			C252.751,356.749,253.266,357.263,253.573,358.006z M252.904,359.733c-0.018-0.166-0.036-0.45-0.09-0.726
			c-0.054-0.349-0.171-0.679-0.388-0.982c-0.307-0.404-1.238-0.542-1.599,0.083c-0.126,0.211-0.226,0.432-0.289,0.661
			c-0.171,0.606-0.171,1.221-0.081,1.846c0.054,0.349,0.135,0.688,0.343,0.992c0.262,0.395,0.713,0.551,1.174,0.413
			c0.307-0.092,0.479-0.313,0.605-0.579C252.814,360.936,252.886,360.403,252.904,359.733z"/>
		<path fill="#FFFFFF" d="M253.573,373.432c0.253,0.597,0.334,1.23,0.343,1.901c-0.009,0.643-0.1,1.304-0.388,1.937
			c-0.217,0.478-0.524,0.881-1.057,1.065c-0.695,0.23-1.373,0.211-2.005-0.184c-0.37-0.229-0.587-0.597-0.75-0.991
			c-0.271-0.68-0.379-1.396-0.343-2.14c0.027-0.615,0.163-1.212,0.424-1.781c0.425-0.891,1.174-1.166,2.06-1.12
			C252.751,372.174,253.266,372.688,253.573,373.432z M252.904,375.149c-0.018-0.156-0.036-0.441-0.09-0.716
			c-0.054-0.349-0.171-0.68-0.388-0.982c-0.307-0.413-1.238-0.542-1.599,0.083c-0.126,0.211-0.226,0.432-0.289,0.661
			c-0.171,0.606-0.171,1.221-0.081,1.845c0.054,0.349,0.135,0.689,0.343,0.992c0.262,0.395,0.713,0.551,1.174,0.404
			c0.307-0.083,0.479-0.303,0.605-0.569C252.814,376.361,252.886,375.819,252.904,375.149z"/>
		<path fill="#FFFFFF" d="M252.498,364.195c0,2.121,0,4.242,0,6.363c-0.361,0-0.723,0-1.102,0c0-1.717,0-3.434,0-5.151
			c-0.208,0-0.407,0-0.614,0c0-0.275,0-0.532,0-0.808c0.081-0.009,0.163-0.009,0.244-0.028c0.226-0.046,0.407-0.156,0.56-0.312
			c0.027-0.037,0.09-0.064,0.145-0.064C251.983,364.186,252.236,364.195,252.498,364.195z"/>
		<path fill="#FFFFFF" d="M252.498,349.238c0,2.13,0,4.242,0,6.363c-0.361,0-0.723,0-1.102,0c0-1.708,0-3.425,0-5.151
			c-0.208,0-0.407,0-0.614,0c0-0.267,0-0.533,0-0.799c0.081-0.009,0.163-0.009,0.244-0.028c0.226-0.046,0.407-0.156,0.56-0.321
			c0.027-0.027,0.09-0.055,0.145-0.055C251.983,349.238,252.236,349.238,252.498,349.238z"/>
		<path fill="#FFFFFF" d="M252.263,326.605c0,2.13,0,4.242,0,6.372c-0.361,0-0.723,0-1.093,0c0-1.717,0-3.434,0-5.16
			c-0.217,0-0.416,0-0.614,0c0-0.266,0-0.533,0-0.799c0.072-0.009,0.163-0.009,0.235-0.027c0.226-0.046,0.407-0.156,0.56-0.313
			c0.036-0.037,0.1-0.064,0.145-0.064C251.748,326.605,252.001,326.605,252.263,326.605z"/>
		<path fill="#FFFFFF" d="M242.607,320.022c0.253,0.597,0.334,1.221,0.343,1.901c-0.009,0.643-0.108,1.304-0.388,1.928
			c-0.217,0.477-0.524,0.891-1.066,1.065c-0.687,0.239-1.364,0.22-1.996-0.174c-0.371-0.23-0.587-0.597-0.75-0.992
			c-0.271-0.689-0.379-1.405-0.343-2.14c0.027-0.624,0.154-1.212,0.425-1.781c0.424-0.891,1.174-1.166,2.06-1.12
			C241.785,318.755,242.3,319.269,242.607,320.022z M241.938,321.739c-0.018-0.156-0.045-0.441-0.09-0.716
			c-0.054-0.358-0.171-0.688-0.388-0.982c-0.307-0.413-1.237-0.551-1.599,0.073c-0.126,0.211-0.226,0.441-0.289,0.67
			c-0.172,0.606-0.172,1.221-0.082,1.836c0.045,0.349,0.136,0.698,0.343,1c0.262,0.395,0.714,0.542,1.174,0.404
			c0.307-0.092,0.479-0.313,0.605-0.569C241.848,322.951,241.92,322.409,241.938,321.739z"/>
		<path fill="#FFFFFF" d="M242.607,335.264c0.253,0.606,0.334,1.23,0.343,1.91c-0.009,0.643-0.108,1.304-0.388,1.928
			c-0.217,0.478-0.524,0.891-1.066,1.065c-0.687,0.239-1.364,0.221-1.996-0.174c-0.371-0.239-0.587-0.597-0.75-0.992
			c-0.271-0.688-0.379-1.405-0.343-2.139c0.027-0.625,0.154-1.221,0.425-1.791c0.424-0.881,1.174-1.157,2.06-1.111
			C241.785,334.006,242.3,334.52,242.607,335.264z M241.938,336.99c-0.018-0.165-0.045-0.441-0.09-0.725
			c-0.054-0.349-0.171-0.68-0.388-0.974c-0.307-0.413-1.237-0.551-1.599,0.074c-0.126,0.211-0.226,0.44-0.289,0.661
			c-0.172,0.606-0.172,1.23-0.082,1.845c0.045,0.349,0.136,0.698,0.343,1.001c0.262,0.386,0.714,0.542,1.174,0.404
			c0.307-0.092,0.479-0.312,0.605-0.569C241.848,338.192,241.92,337.66,241.938,336.99z"/>
		<path fill="#FFFFFF" d="M242.607,342.747c0.253,0.606,0.334,1.23,0.343,1.91c-0.009,0.643-0.108,1.304-0.388,1.928
			c-0.217,0.478-0.524,0.891-1.066,1.065c-0.687,0.238-1.364,0.211-1.996-0.175c-0.371-0.239-0.587-0.597-0.75-0.992
			c-0.271-0.688-0.379-1.405-0.343-2.139c0.027-0.625,0.154-1.221,0.425-1.791c0.424-0.891,1.174-1.157,2.06-1.111
			C241.785,341.489,242.3,342.003,242.607,342.747z M241.938,344.473c-0.018-0.165-0.045-0.44-0.09-0.725
			c-0.054-0.349-0.171-0.68-0.388-0.973c-0.307-0.414-1.237-0.551-1.599,0.073c-0.126,0.211-0.226,0.432-0.289,0.661
			c-0.172,0.606-0.172,1.23-0.082,1.846c0.045,0.349,0.136,0.688,0.343,0.991c0.262,0.395,0.714,0.551,1.174,0.414
			c0.307-0.092,0.479-0.313,0.605-0.579C241.848,345.676,241.92,345.143,241.938,344.473z"/>
		<path fill="#FFFFFF" d="M242.607,350.551c0.253,0.597,0.334,1.23,0.343,1.9c-0.009,0.652-0.108,1.313-0.388,1.938
			c-0.217,0.477-0.524,0.881-1.066,1.065c-0.687,0.229-1.364,0.211-1.996-0.184c-0.371-0.229-0.587-0.597-0.75-0.982
			c-0.271-0.688-0.379-1.405-0.343-2.14c0.027-0.624,0.154-1.221,0.425-1.79c0.424-0.891,1.174-1.157,2.06-1.111
			C241.785,349.293,242.3,349.807,242.607,350.551z M241.938,352.277c-0.018-0.166-0.045-0.45-0.09-0.726
			c-0.054-0.349-0.171-0.679-0.388-0.982c-0.307-0.404-1.237-0.542-1.599,0.083c-0.126,0.211-0.226,0.432-0.289,0.661
			c-0.172,0.606-0.172,1.221-0.082,1.846c0.045,0.349,0.136,0.688,0.343,0.992c0.262,0.395,0.714,0.551,1.174,0.413
			c0.307-0.092,0.479-0.312,0.605-0.579C241.848,353.48,241.92,352.947,241.938,352.277z"/>
		<path fill="#FFFFFF" d="M242.607,365.508c0.253,0.597,0.334,1.221,0.343,1.901c-0.009,0.643-0.108,1.304-0.388,1.928
			c-0.217,0.477-0.524,0.891-1.066,1.065c-0.687,0.239-1.364,0.22-1.996-0.174c-0.371-0.23-0.587-0.597-0.75-0.992
			c-0.271-0.689-0.379-1.405-0.343-2.14c0.027-0.615,0.154-1.212,0.425-1.781c0.424-0.891,1.174-1.166,2.06-1.12
			C241.785,364.241,242.3,364.755,242.607,365.508z M241.938,367.225c-0.018-0.156-0.045-0.441-0.09-0.716
			c-0.054-0.358-0.171-0.688-0.388-0.982c-0.307-0.413-1.237-0.551-1.599,0.083c-0.126,0.202-0.226,0.432-0.289,0.661
			c-0.172,0.606-0.172,1.221-0.082,1.836c0.045,0.349,0.136,0.698,0.343,1c0.262,0.395,0.714,0.542,1.174,0.404
			c0.307-0.092,0.479-0.312,0.605-0.569C241.848,368.437,241.92,367.895,241.938,367.225z"/>
		<path fill="#FFFFFF" d="M241.532,372.119c0,2.13,0,4.242,0,6.363c-0.361,0-0.723,0-1.102,0c0-1.717,0-3.425,0-5.151
			c-0.208,0-0.406,0-0.614,0c0-0.275,0-0.532,0-0.799c0.082-0.009,0.163-0.018,0.244-0.027c0.217-0.055,0.406-0.156,0.56-0.321
			c0.027-0.037,0.09-0.055,0.145-0.064C241.018,372.119,241.271,372.119,241.532,372.119z"/>
		<path fill="#FFFFFF" d="M241.532,356.693c0,2.13,0,4.242,0,6.363c-0.361,0-0.723,0-1.102,0c0-1.717,0-3.425,0-5.151
			c-0.208,0-0.406,0-0.614,0c0-0.267,0-0.533,0-0.799c0.082-0.009,0.163-0.019,0.244-0.028c0.217-0.055,0.406-0.156,0.56-0.321
			c0.027-0.027,0.09-0.055,0.145-0.064C241.018,356.693,241.271,356.693,241.532,356.693z"/>
		<path fill="#FFFFFF" d="M241.243,326.605c0,2.13,0,4.242,0,6.372c-0.352,0-0.723,0-1.093,0c0-1.717,0-3.434,0-5.16
			c-0.217,0-0.407,0-0.614,0c0-0.266,0-0.533,0-0.799c0.081-0.009,0.163-0.009,0.244-0.027c0.217-0.046,0.407-0.156,0.551-0.313
			c0.036-0.037,0.099-0.064,0.153-0.064C240.729,326.605,240.99,326.605,241.243,326.605z"/>
		<path fill="#FFFFFF" d="M230.811,320.022c0.244,0.597,0.334,1.221,0.334,1.901c0,0.643-0.099,1.304-0.379,1.928
			c-0.217,0.477-0.533,0.891-1.066,1.065c-0.686,0.239-1.373,0.22-1.996-0.174c-0.379-0.23-0.596-0.597-0.75-0.992
			c-0.28-0.689-0.389-1.405-0.353-2.14c0.036-0.624,0.163-1.212,0.434-1.781c0.416-0.891,1.174-1.166,2.051-1.12
			C229.979,318.755,230.503,319.269,230.811,320.022z M230.133,321.739c-0.018-0.156-0.036-0.441-0.081-0.716
			c-0.063-0.358-0.181-0.688-0.397-0.982c-0.298-0.413-1.237-0.551-1.599,0.073c-0.118,0.211-0.217,0.441-0.28,0.67
			c-0.171,0.606-0.181,1.221-0.09,1.836c0.054,0.349,0.145,0.698,0.343,1c0.271,0.395,0.714,0.542,1.184,0.404
			c0.307-0.092,0.479-0.313,0.596-0.569C230.052,322.951,230.124,322.409,230.133,321.739z"/>
		<path fill="#FFFFFF" d="M230.811,335.264c0.244,0.606,0.334,1.23,0.334,1.91c0,0.643-0.099,1.304-0.379,1.928
			c-0.217,0.478-0.533,0.891-1.066,1.065c-0.686,0.239-1.373,0.221-1.996-0.174c-0.379-0.239-0.596-0.597-0.75-0.992
			c-0.28-0.688-0.389-1.405-0.353-2.139c0.036-0.625,0.163-1.221,0.434-1.791c0.416-0.881,1.174-1.157,2.051-1.111
			C229.979,334.006,230.503,334.52,230.811,335.264z M230.133,336.99c-0.018-0.165-0.036-0.441-0.081-0.725
			c-0.063-0.349-0.181-0.68-0.397-0.974c-0.298-0.413-1.237-0.551-1.599,0.074c-0.118,0.211-0.217,0.44-0.28,0.661
			c-0.171,0.606-0.181,1.23-0.09,1.845c0.054,0.349,0.145,0.698,0.343,1.001c0.271,0.386,0.714,0.542,1.184,0.404
			c0.307-0.092,0.479-0.312,0.596-0.569C230.052,338.192,230.124,337.66,230.133,336.99z"/>
		<path fill="#FFFFFF" d="M230.811,342.747c0.244,0.606,0.334,1.23,0.334,1.91c0,0.643-0.099,1.304-0.379,1.928
			c-0.217,0.478-0.533,0.891-1.066,1.065c-0.686,0.238-1.373,0.211-1.996-0.175c-0.379-0.239-0.596-0.597-0.75-0.992
			c-0.28-0.688-0.389-1.405-0.353-2.139c0.036-0.625,0.163-1.221,0.434-1.791c0.416-0.891,1.174-1.157,2.051-1.111
			C229.979,341.489,230.503,342.003,230.811,342.747z M230.133,344.473c-0.018-0.165-0.036-0.44-0.081-0.725
			c-0.063-0.349-0.181-0.68-0.397-0.973c-0.298-0.414-1.237-0.551-1.599,0.073c-0.118,0.211-0.217,0.432-0.28,0.661
			c-0.171,0.606-0.181,1.23-0.09,1.846c0.054,0.349,0.145,0.688,0.343,0.991c0.271,0.395,0.714,0.551,1.184,0.414
			c0.307-0.092,0.479-0.313,0.596-0.579C230.052,345.676,230.124,345.143,230.133,344.473z"/>
		<path fill="#FFFFFF" d="M230.811,350.551c0.244,0.597,0.334,1.23,0.334,1.9c0,0.652-0.099,1.313-0.379,1.938
			c-0.217,0.477-0.533,0.881-1.066,1.065c-0.686,0.229-1.373,0.211-1.996-0.184c-0.379-0.229-0.596-0.597-0.75-0.982
			c-0.28-0.688-0.389-1.405-0.353-2.14c0.036-0.624,0.163-1.221,0.434-1.79c0.416-0.891,1.174-1.157,2.051-1.111
			C229.979,349.293,230.503,349.807,230.811,350.551z M230.133,352.277c-0.018-0.166-0.036-0.45-0.081-0.726
			c-0.063-0.349-0.181-0.679-0.397-0.982c-0.298-0.404-1.237-0.542-1.599,0.083c-0.118,0.211-0.217,0.432-0.28,0.661
			c-0.171,0.606-0.181,1.221-0.09,1.846c0.054,0.349,0.145,0.688,0.343,0.992c0.271,0.395,0.714,0.551,1.184,0.413
			c0.307-0.092,0.479-0.312,0.596-0.579C230.052,353.48,230.124,352.947,230.133,352.277z"/>
		<path fill="#FFFFFF" d="M230.811,358.006c0.244,0.597,0.334,1.23,0.334,1.901c0,0.643-0.099,1.313-0.379,1.938
			c-0.217,0.477-0.533,0.881-1.066,1.065c-0.686,0.229-1.373,0.211-1.996-0.184c-0.379-0.229-0.596-0.597-0.75-0.982
			c-0.28-0.689-0.389-1.405-0.353-2.148c0.036-0.615,0.163-1.212,0.434-1.781c0.416-0.891,1.174-1.167,2.051-1.111
			C229.979,356.749,230.503,357.263,230.811,358.006z M230.133,359.733c-0.018-0.166-0.036-0.45-0.081-0.726
			c-0.063-0.349-0.181-0.679-0.397-0.982c-0.298-0.404-1.237-0.542-1.599,0.083c-0.118,0.211-0.217,0.432-0.28,0.661
			c-0.171,0.606-0.181,1.221-0.09,1.846c0.054,0.349,0.145,0.688,0.343,0.992c0.271,0.395,0.714,0.551,1.184,0.413
			c0.307-0.092,0.479-0.313,0.596-0.579C230.052,360.936,230.124,360.403,230.133,359.733z"/>
		<path fill="#FFFFFF" d="M230.811,365.508c0.244,0.597,0.334,1.221,0.334,1.901c0,0.643-0.099,1.304-0.379,1.928
			c-0.217,0.477-0.533,0.891-1.066,1.065c-0.686,0.239-1.373,0.22-1.996-0.174c-0.379-0.23-0.596-0.597-0.75-0.992
			c-0.28-0.689-0.389-1.405-0.353-2.14c0.036-0.615,0.163-1.212,0.434-1.781c0.416-0.891,1.174-1.166,2.051-1.12
			C229.979,364.241,230.503,364.755,230.811,365.508z M230.133,367.225c-0.018-0.156-0.036-0.441-0.081-0.716
			c-0.063-0.358-0.181-0.688-0.397-0.982c-0.298-0.413-1.237-0.551-1.599,0.083c-0.118,0.202-0.217,0.432-0.28,0.661
			c-0.171,0.606-0.181,1.221-0.09,1.836c0.054,0.349,0.145,0.698,0.343,1c0.271,0.395,0.714,0.542,1.184,0.404
			c0.307-0.092,0.479-0.312,0.596-0.569C230.052,368.437,230.124,367.895,230.133,367.225z"/>
		<path fill="#FFFFFF" d="M229.438,372.119c0,2.13,0,4.242,0,6.363c-0.361,0-0.723,0-1.093,0c0-1.717,0-3.425,0-5.151
			c-0.217,0-0.416,0-0.614,0c0-0.275,0-0.532,0-0.799c0.072-0.009,0.163-0.018,0.235-0.027c0.226-0.055,0.406-0.156,0.56-0.321
			c0.036-0.037,0.099-0.055,0.145-0.064C228.923,372.119,229.176,372.119,229.438,372.119z"/>
		<path fill="#FFFFFF" d="M229.438,326.605c0,2.13,0,4.242,0,6.372c-0.361,0-0.723,0-1.093,0c0-1.717,0-3.434,0-5.16
			c-0.217,0-0.416,0-0.614,0c0-0.266,0-0.533,0-0.799c0.072-0.009,0.163-0.009,0.235-0.027c0.226-0.046,0.406-0.156,0.56-0.313
			c0.036-0.037,0.099-0.064,0.145-0.064C228.923,326.605,229.176,326.605,229.438,326.605z"/>
		<path fill="#FFFFFF" d="M219.402,350.551c0.244,0.597,0.334,1.23,0.343,1.9c-0.009,0.652-0.108,1.313-0.389,1.938
			c-0.217,0.477-0.533,0.891-1.066,1.065c-0.687,0.239-1.364,0.211-1.996-0.174c-0.37-0.239-0.587-0.597-0.75-0.992
			c-0.271-0.688-0.379-1.405-0.343-2.148c0.027-0.615,0.153-1.212,0.424-1.781c0.425-0.891,1.174-1.166,2.06-1.12
			C218.58,349.293,219.095,349.807,219.402,350.551z M218.725,352.277c-0.018-0.166-0.036-0.45-0.081-0.726
			c-0.054-0.349-0.172-0.679-0.397-0.982c-0.298-0.413-1.229-0.542-1.599,0.083c-0.118,0.211-0.217,0.432-0.28,0.661
			c-0.171,0.606-0.181,1.221-0.09,1.846c0.054,0.349,0.145,0.688,0.353,0.992c0.262,0.395,0.713,0.551,1.174,0.413
			c0.307-0.092,0.479-0.312,0.605-0.579C218.644,353.48,218.716,352.947,218.725,352.277z"/>
		<path fill="#FFFFFF" d="M218.933,335.264c0.244,0.606,0.334,1.23,0.334,1.91c0,0.643-0.099,1.304-0.379,1.928
			c-0.217,0.478-0.533,0.891-1.066,1.065c-0.686,0.239-1.373,0.221-1.996-0.174c-0.379-0.239-0.596-0.597-0.75-0.992
			c-0.28-0.688-0.389-1.405-0.353-2.139c0.036-0.625,0.163-1.221,0.434-1.791c0.416-0.881,1.174-1.157,2.051-1.111
			C218.102,334.006,218.625,334.52,218.933,335.264z M218.255,336.99c-0.018-0.165-0.036-0.441-0.081-0.725
			c-0.063-0.349-0.181-0.68-0.397-0.974c-0.298-0.413-1.237-0.551-1.599,0.074c-0.118,0.211-0.217,0.44-0.28,0.661
			c-0.171,0.606-0.181,1.23-0.09,1.845c0.054,0.349,0.145,0.698,0.343,1.001c0.271,0.386,0.714,0.542,1.183,0.404
			c0.307-0.092,0.479-0.312,0.596-0.569C218.165,338.192,218.246,337.66,218.255,336.99z"/>
		<path fill="#FFFFFF" d="M218.544,320.022c0.253,0.597,0.334,1.221,0.343,1.901c-0.009,0.643-0.108,1.304-0.388,1.928
			c-0.217,0.477-0.524,0.891-1.066,1.065c-0.687,0.239-1.364,0.22-1.996-0.174c-0.371-0.23-0.587-0.597-0.75-0.992
			c-0.271-0.689-0.379-1.405-0.343-2.14c0.027-0.624,0.154-1.212,0.425-1.781c0.424-0.891,1.174-1.166,2.06-1.12
			C217.722,318.755,218.237,319.269,218.544,320.022z M217.875,321.739c-0.018-0.156-0.045-0.441-0.09-0.716
			c-0.054-0.358-0.171-0.688-0.388-0.982c-0.307-0.413-1.237-0.551-1.599,0.073c-0.126,0.211-0.226,0.441-0.289,0.67
			c-0.172,0.606-0.172,1.221-0.082,1.836c0.045,0.349,0.136,0.698,0.343,1c0.262,0.395,0.714,0.542,1.174,0.404
			c0.307-0.092,0.479-0.313,0.605-0.569C217.785,322.951,217.857,322.409,217.875,321.739z"/>
		<path fill="#FFFFFF" d="M218.327,372.119c0,2.13,0,4.242,0,6.363c-0.361,0-0.723,0-1.102,0c0-1.717,0-3.425,0-5.151
			c-0.217,0-0.407,0-0.614,0c0-0.275,0-0.532,0-0.799c0.081-0.009,0.163-0.018,0.244-0.027c0.217-0.055,0.407-0.156,0.56-0.321
			c0.027-0.037,0.09-0.055,0.145-0.064C217.813,372.119,218.065,372.119,218.327,372.119z"/>
		<path fill="#FFFFFF" d="M218.327,364.195c0,2.121,0,4.242,0,6.363c-0.361,0-0.723,0-1.102,0c0-1.717,0-3.434,0-5.151
			c-0.217,0-0.407,0-0.614,0c0-0.275,0-0.532,0-0.808c0.081-0.009,0.163-0.009,0.244-0.028c0.217-0.046,0.407-0.156,0.56-0.312
			c0.027-0.037,0.09-0.064,0.145-0.064C217.813,364.186,218.065,364.195,218.327,364.195z"/>
		<path fill="#FFFFFF" d="M218.327,356.693c0,2.13,0,4.242,0,6.363c-0.361,0-0.723,0-1.102,0c0-1.717,0-3.425,0-5.151
			c-0.217,0-0.407,0-0.614,0c0-0.267,0-0.533,0-0.799c0.081-0.009,0.163-0.019,0.244-0.028c0.217-0.055,0.407-0.156,0.56-0.321
			c0.027-0.027,0.09-0.055,0.145-0.064C217.813,356.693,218.065,356.693,218.327,356.693z"/>
		<path fill="#FFFFFF" d="M217.849,341.434c0,2.13,0,4.242,0,6.372c-0.361,0-0.723,0-1.093,0c0-1.717,0-3.434,0-5.16
			c-0.217,0-0.416,0-0.614,0c0-0.266,0-0.532,0-0.799c0.081-0.009,0.163-0.009,0.235-0.027c0.226-0.046,0.406-0.156,0.56-0.312
			c0.036-0.037,0.099-0.064,0.153-0.064C217.333,341.434,217.586,341.434,217.849,341.434z"/>
		<path fill="#FFFFFF" d="M217.469,326.302c0,2.13,0,4.242,0,6.363c-0.361,0-0.723,0-1.102,0c0-1.717,0-3.424,0-5.151
			c-0.208,0-0.406,0-0.614,0c0-0.275,0-0.532,0-0.799c0.082-0.009,0.163-0.018,0.244-0.027c0.217-0.055,0.406-0.156,0.56-0.321
			c0.027-0.037,0.09-0.064,0.145-0.064C216.955,326.302,217.208,326.302,217.469,326.302z"/>
	</g>
	<g>
	</g>
</g>
<path fill-rule="evenodd" clip-rule="evenodd" fill="#040404" d="M264.174,285.878c-0.9-0.842-1.743-1.63-2.64-2.468
	c0.765-0.914,1.501-1.793,2.289-2.735c0.879,0.789,1.713,1.538,2.596,2.332C265.661,283.978,264.935,284.906,264.174,285.878z"/>
</svg>
